<mxfile host="65bd71144e">
    <diagram id="qH6Q36SluymvAVFTjO0D" name="Page-1">
        <mxGraphModel dx="1082" dy="1849" grid="1" gridSize="10" guides="1" tooltips="1" connect="1" arrows="1" fold="1" page="1" pageScale="1" pageWidth="850" pageHeight="1100" math="0" shadow="0">
            <root>
                <mxCell id="0"/>
                <mxCell id="1" parent="0"/>
                <mxCell id="15" value="" style="edgeStyle=none;html=1;" edge="1" parent="1" source="16" target="18">
                    <mxGeometry relative="1" as="geometry"/>
                </mxCell>
                <mxCell id="16" value="Start" style="strokeWidth=2;html=1;shape=mxgraph.flowchart.terminator;whiteSpace=wrap;" vertex="1" parent="1">
                    <mxGeometry x="335.31" y="-30" width="100" height="60" as="geometry"/>
                </mxCell>
                <mxCell id="17" value="" style="edgeStyle=none;html=1;" edge="1" parent="1" source="18">
                    <mxGeometry relative="1" as="geometry">
                        <mxPoint x="385.30999999999995" y="170" as="targetPoint"/>
                    </mxGeometry>
                </mxCell>
                <mxCell id="18" value="get listArray" style="shape=parallelogram;html=1;strokeWidth=2;perimeter=parallelogramPerimeter;whiteSpace=wrap;rounded=1;arcSize=12;size=0.23;" vertex="1" parent="1">
                    <mxGeometry x="335.31" y="80" width="100" height="60" as="geometry"/>
                </mxCell>
                <mxCell id="20" value="" style="edgeStyle=none;rounded=0;html=1;fontFamily=Helvetica;fontSize=12;fontColor=#F0F0F0;startArrow=none;" edge="1" parent="1">
                    <mxGeometry relative="1" as="geometry">
                        <mxPoint x="901.5700000000002" y="541.5" as="sourcePoint"/>
                        <mxPoint x="901.5700000000002" y="541.5" as="targetPoint"/>
                    </mxGeometry>
                </mxCell>
                <mxCell id="22" value="" style="edgeStyle=none;rounded=0;html=1;fontFamily=Helvetica;fontSize=12;fontColor=#F0F0F0;endArrow=none;" edge="1" parent="1">
                    <mxGeometry relative="1" as="geometry">
                        <mxPoint x="871.5700000000002" y="541.5" as="sourcePoint"/>
                        <mxPoint x="871.5700000000002" y="541.5" as="targetPoint"/>
                    </mxGeometry>
                </mxCell>
                <mxCell id="84" value="" style="edgeStyle=none;html=1;" edge="1" parent="1" source="25" target="83">
                    <mxGeometry relative="1" as="geometry"/>
                </mxCell>
                <mxCell id="88" style="edgeStyle=none;html=1;entryX=0.5;entryY=0;entryDx=0;entryDy=0;entryPerimeter=0;exitX=0.5;exitY=1;exitDx=0;exitDy=0;exitPerimeter=0;rounded=0;" edge="1" parent="1" source="25" target="87">
                    <mxGeometry relative="1" as="geometry">
                        <Array as="points">
                            <mxPoint x="385" y="700"/>
                            <mxPoint x="665" y="700"/>
                        </Array>
                    </mxGeometry>
                </mxCell>
                <mxCell id="97" style="edgeStyle=none;rounded=0;html=1;entryX=0.5;entryY=0;entryDx=0;entryDy=0;" edge="1" parent="1" source="25" target="61">
                    <mxGeometry relative="1" as="geometry">
                        <Array as="points">
                            <mxPoint x="1140" y="575"/>
                            <mxPoint x="1140" y="1360"/>
                            <mxPoint x="385" y="1360"/>
                        </Array>
                    </mxGeometry>
                </mxCell>
                <mxCell id="25" value="&lt;br&gt;&lt;br&gt;&lt;pre style=&quot;color: rgb(255 , 255 , 255) ; font-style: normal ; font-weight: 400 ; letter-spacing: normal ; text-indent: 0px ; text-transform: none ; word-spacing: 0px ; overflow-wrap: break-word&quot;&gt;for (let loopCounterOne = 0; &lt;/pre&gt;&lt;pre style=&quot;color: rgb(255 , 255 , 255) ; font-style: normal ; font-weight: 400 ; letter-spacing: normal ; text-indent: 0px ; text-transform: none ; word-spacing: 0px ; overflow-wrap: break-word&quot;&gt;loopCounterOne &lt;/pre&gt;&lt;pre style=&quot;color: rgb(255 , 255 , 255) ; font-style: normal ; font-weight: 400 ; letter-spacing: normal ; text-indent: 0px ; text-transform: none ; word-spacing: 0px ; overflow-wrap: break-word&quot;&gt;&amp;lt; arraySize; &lt;/pre&gt;&lt;pre style=&quot;color: rgb(255 , 255 , 255) ; font-style: normal ; font-weight: 400 ; letter-spacing: normal ; text-indent: 0px ; text-transform: none ; word-spacing: 0px ; overflow-wrap: break-word&quot;&gt;loopCounterOne++)&lt;/pre&gt;" style="strokeWidth=2;html=1;shape=mxgraph.flowchart.decision;whiteSpace=wrap;" vertex="1" parent="1">
                    <mxGeometry x="255.31" y="460" width="260" height="230" as="geometry"/>
                </mxCell>
                <mxCell id="27" value="No" style="text;html=1;resizable=0;autosize=1;align=center;verticalAlign=middle;points=[];fillColor=none;strokeColor=none;rounded=0;" vertex="1" parent="1">
                    <mxGeometry x="830" y="1080" width="30" height="20" as="geometry"/>
                </mxCell>
                <mxCell id="95" value="" style="edgeStyle=none;rounded=0;html=1;" edge="1" parent="1" source="61" target="62">
                    <mxGeometry relative="1" as="geometry"/>
                </mxCell>
                <mxCell id="61" value="return maxValue" style="shape=parallelogram;html=1;strokeWidth=2;perimeter=parallelogramPerimeter;whiteSpace=wrap;rounded=1;arcSize=12;size=0.23;" vertex="1" parent="1">
                    <mxGeometry x="325.31" y="1390" width="120" height="60" as="geometry"/>
                </mxCell>
                <mxCell id="62" value="Stop" style="strokeWidth=2;html=1;shape=mxgraph.flowchart.terminator;whiteSpace=wrap;" vertex="1" parent="1">
                    <mxGeometry x="335.31" y="1500" width="100" height="60" as="geometry"/>
                </mxCell>
                <mxCell id="68" value="Yes" style="text;html=1;resizable=0;autosize=1;align=center;verticalAlign=middle;points=[];fillColor=none;strokeColor=none;rounded=0;" vertex="1" parent="1">
                    <mxGeometry x="660" y="1230" width="40" height="20" as="geometry"/>
                </mxCell>
                <mxCell id="78" value="" style="edgeStyle=none;html=1;" edge="1" parent="1" source="75" target="76">
                    <mxGeometry relative="1" as="geometry"/>
                </mxCell>
                <mxCell id="75" value="get arraySize = listArray.length" style="shape=parallelogram;html=1;strokeWidth=2;perimeter=parallelogramPerimeter;whiteSpace=wrap;rounded=1;arcSize=12;size=0.23;" vertex="1" parent="1">
                    <mxGeometry x="265.31" y="170" width="240" height="80" as="geometry"/>
                </mxCell>
                <mxCell id="79" value="" style="edgeStyle=none;html=1;" edge="1" parent="1" source="76" target="77">
                    <mxGeometry relative="1" as="geometry"/>
                </mxCell>
                <mxCell id="76" value="get maxValue = 0" style="shape=parallelogram;html=1;strokeWidth=2;perimeter=parallelogramPerimeter;whiteSpace=wrap;rounded=1;arcSize=12;size=0.23;" vertex="1" parent="1">
                    <mxGeometry x="315.31" y="280" width="140" height="60" as="geometry"/>
                </mxCell>
                <mxCell id="80" value="" style="edgeStyle=none;html=1;" edge="1" parent="1" source="77" target="25">
                    <mxGeometry relative="1" as="geometry"/>
                </mxCell>
                <mxCell id="77" value="get count = 0" style="shape=parallelogram;html=1;strokeWidth=2;perimeter=parallelogramPerimeter;whiteSpace=wrap;rounded=1;arcSize=12;size=0.23;" vertex="1" parent="1">
                    <mxGeometry x="335.31" y="370" width="100" height="60" as="geometry"/>
                </mxCell>
                <mxCell id="86" value="" style="edgeStyle=none;html=1;" edge="1" parent="1" source="83" target="85">
                    <mxGeometry relative="1" as="geometry"/>
                </mxCell>
                <mxCell id="83" value="&lt;pre style=&quot;color: rgb(255 , 255 , 255) ; overflow-wrap: break-word&quot;&gt;if (count &amp;gt; maxValue)&lt;/pre&gt;" style="strokeWidth=2;html=1;shape=mxgraph.flowchart.decision;whiteSpace=wrap;" vertex="1" parent="1">
                    <mxGeometry x="310.31" y="720" width="150" height="130" as="geometry"/>
                </mxCell>
                <mxCell id="100" style="edgeStyle=none;rounded=0;html=1;entryX=0;entryY=0.5;entryDx=0;entryDy=0;entryPerimeter=0;" edge="1" parent="1" source="85" target="25">
                    <mxGeometry relative="1" as="geometry">
                        <Array as="points">
                            <mxPoint x="385" y="1000"/>
                            <mxPoint x="180" y="1000"/>
                            <mxPoint x="180" y="575"/>
                        </Array>
                    </mxGeometry>
                </mxCell>
                <mxCell id="85" value="maxValue = count" style="shape=parallelogram;html=1;strokeWidth=2;perimeter=parallelogramPerimeter;whiteSpace=wrap;rounded=1;arcSize=12;size=0.23;" vertex="1" parent="1">
                    <mxGeometry x="315.31" y="880" width="140" height="60" as="geometry"/>
                </mxCell>
                <mxCell id="90" value="" style="edgeStyle=none;rounded=0;html=1;" edge="1" parent="1" source="87" target="89">
                    <mxGeometry relative="1" as="geometry"/>
                </mxCell>
                <mxCell id="87" value="&lt;pre style=&quot;color: rgb(255 , 255 , 255) ; overflow-wrap: break-word&quot;&gt;&lt;pre style=&quot;overflow-wrap: break-word&quot;&gt;&lt;br&gt;&lt;/pre&gt;&lt;pre style=&quot;overflow-wrap: break-word&quot;&gt;for (let loopCounterTwo &lt;/pre&gt;&lt;pre style=&quot;overflow-wrap: break-word&quot;&gt;= loopCounterOne; &lt;/pre&gt;&lt;pre style=&quot;overflow-wrap: break-word&quot;&gt;loopCounterTwo &lt;/pre&gt;&lt;pre style=&quot;overflow-wrap: break-word&quot;&gt;&amp;lt; arraySize; &lt;/pre&gt;&lt;pre style=&quot;overflow-wrap: break-word&quot;&gt;loopCounterTwo++)&lt;/pre&gt;&lt;/pre&gt;" style="strokeWidth=2;html=1;shape=mxgraph.flowchart.decision;whiteSpace=wrap;" vertex="1" parent="1">
                    <mxGeometry x="530" y="730" width="270" height="250" as="geometry"/>
                </mxCell>
                <mxCell id="92" value="" style="edgeStyle=none;rounded=0;html=1;" edge="1" parent="1" source="89" target="91">
                    <mxGeometry relative="1" as="geometry"/>
                </mxCell>
                <mxCell id="94" style="edgeStyle=none;rounded=0;html=1;entryX=0.6;entryY=0.033;entryDx=0;entryDy=0;entryPerimeter=0;exitX=1;exitY=0.5;exitDx=0;exitDy=0;exitPerimeter=0;" edge="1" parent="1" source="89" target="93">
                    <mxGeometry relative="1" as="geometry">
                        <Array as="points">
                            <mxPoint x="904" y="1110"/>
                        </Array>
                    </mxGeometry>
                </mxCell>
                <mxCell id="89" value="&lt;pre style=&quot;color: rgb(255 , 255 , 255) ; overflow-wrap: break-word&quot;&gt;if (listArray[loopCounterOne] &lt;/pre&gt;&lt;pre style=&quot;color: rgb(255 , 255 , 255) ; overflow-wrap: break-word&quot;&gt;=== listArray[loopCounterTwo]) &lt;/pre&gt;" style="strokeWidth=2;html=1;shape=mxgraph.flowchart.decision;whiteSpace=wrap;" vertex="1" parent="1">
                    <mxGeometry x="540" y="1000" width="250" height="220" as="geometry"/>
                </mxCell>
                <mxCell id="101" style="edgeStyle=none;rounded=0;html=1;entryX=0;entryY=0.5;entryDx=0;entryDy=0;entryPerimeter=0;exitX=0.5;exitY=1;exitDx=0;exitDy=0;" edge="1" parent="1" source="91" target="87">
                    <mxGeometry relative="1" as="geometry">
                        <mxPoint x="665" y="1340" as="sourcePoint"/>
                        <Array as="points">
                            <mxPoint x="665" y="1340"/>
                            <mxPoint x="480" y="1340"/>
                            <mxPoint x="480" y="855"/>
                        </Array>
                    </mxGeometry>
                </mxCell>
                <mxCell id="91" value="count += 1" style="shape=parallelogram;html=1;strokeWidth=2;perimeter=parallelogramPerimeter;whiteSpace=wrap;rounded=1;arcSize=12;size=0.23;" vertex="1" parent="1">
                    <mxGeometry x="595" y="1260" width="140" height="60" as="geometry"/>
                </mxCell>
                <mxCell id="93" value="break" style="shape=parallelogram;html=1;strokeWidth=2;perimeter=parallelogramPerimeter;whiteSpace=wrap;rounded=1;arcSize=12;size=0.23;" vertex="1" parent="1">
                    <mxGeometry x="820" y="1240" width="140" height="60" as="geometry"/>
                </mxCell>
            </root>
        </mxGraphModel>
    </diagram>
</mxfile>